<?xml version="1.0" encoding="UTF-8"?>
<svg xmlns="http://www.w3.org/2000/svg" version="1.1" viewBox="0 0 512 512">
  <defs>
    <style>
      .st0 { fill: #414042; }
      .st1 { fill: #fff; }
      .st2 { opacity: .25; }

      /* Dark mode — show white layer, hide dark layer */
      #Layer_1 { display: none; }
      #Layer_2 { display: block; }

      /* Light mode — show dark layer, hide white layer */
      @media (prefers-color-scheme: light) {
        #Layer_1 { display: block; }
        #Layer_2 { display: none; }
      }
    </style>
  </defs>
  <g id="Layer_1">
    <g class="st2">
      <path class="st0" d="M56,20.71h209.75c59.16,0,105.55,17.48,135.8,47.06,24.87,26.22,38.99,60.5,38.99,101.51v1.34c0,77.31-46.39,123.7-111.6,142.52l127.06,178.15h-98.15l-115.63-164.03h-103.53v164.03H56V20.71ZM259.7,253.98c59.16,0,96.81-30.25,96.81-78.66v-1.34c0-51.09-35.63-77.98-97.48-77.98h-120.34v157.98h121.01Z"/>
    </g>
    <path class="st0" d="M265.81,326.98c-43.09,1.17-95.96-.13-127.12.28v164.03H56V20.71h209.75c59.16,0,105.55,17.48,135.8,47.06,24.87,26.22,38.99,64.68,38.99,105.68v1.34c.38,13.45-.5,42.99-22.25,76.73-28.04,38.54-72.86,59.63-72.86,59.63,0,0-22.15,14.24-79.62,15.82ZM259.7,253.98c59.16,0,96.81-30.25,96.81-78.66v-1.34c0-51.09-35.63-77.98-97.48-77.98h-120.34v157.98h121.01Z"/>
  </g>
  <g id="Layer_2">
    <g class="st2">
      <path class="st1" d="M56,20.71h209.75c59.16,0,105.55,17.48,135.8,47.06,24.87,26.22,38.99,60.5,38.99,101.51v1.34c0,77.31-46.39,123.7-111.6,142.52l127.06,178.15h-98.15l-115.63-164.03h-103.53v164.03H56V20.71ZM259.7,253.98c59.16,0,96.81-30.25,96.81-78.66v-1.34c0-51.09-35.63-77.98-97.48-77.98h-120.34v157.98h121.01Z"/>
    </g>
    <path class="st1" d="M265.81,326.98c-43.09,1.17-95.96-.13-127.12.28v164.03H56V20.71h209.75c59.16,0,105.55,17.48,135.8,47.06,24.87,26.22,38.99,64.68,38.99,105.68v1.34c.38,13.45-.5,42.99-22.25,76.73-28.04,38.54-72.86,59.63-72.86,59.63,0,0-22.15,14.24-79.62,15.82ZM259.7,253.98c59.16,0,96.81-30.25,96.81-78.66v-1.34c0-51.09-35.63-77.98-97.48-77.98h-120.34v157.98h121.01Z"/>
  </g>
</svg>
